<svg xmlns="http://www.w3.org/2000/svg" width="316" height="119.832" viewBox="0 0 316 119.832"><g transform="translate(158 59.916)"><g transform="translate(-158 -59.916)"><path d="M49.75,81.962c-1.712,1.3-.959,1.643.959.753L123.7,46.767c1.917-.959,1.849-2.328-.137-3.15L44.82,13.147c-1.986-.753-2.328-.137-.479.959L94.462,43.138c1.849,1.1,1.986,3.013.274,4.314Z" transform="translate(-13.597 -4.045)" fill="#ed6b00"/><path d="M92.326,23.143c-1.575-.411-1.712.274-.205.89L148.953,46.9c1.986.822,2.054,2.26.137,3.218L90.34,79.29c-1.438.753-1.3,1.164.274.616l91.958-30.333c2.054-.685,1.986-1.643-.068-2.191Z" transform="translate(-28.168 -7.262)" fill="#ffc400"/><path d="M71.622,43.482a2.414,2.414,0,0,0-.274-4.314L2.533.55C.685-.477.342,0,1.712,1.577L35.674,38.141a4.451,4.451,0,0,1-.137,5.82l-33,34.989A10.682,10.682,0,0,0,0,85.661l1.3,32.182c.068,2.123.753,2.191,1.438.205l8.833-25.2a15.543,15.543,0,0,1,4.382-6.094Z" transform="translate(0 -0.007)" fill="#dc001c"/><path d="M84.71,132.774c-1.369-1.1-3.287-1.575-5.957-1.575H71.769a12.941,12.941,0,0,0-3.218.342,6.369,6.369,0,0,0-2.465,1.233,5.2,5.2,0,0,0-1.506,2.123,8.217,8.217,0,0,0-.479,2.876V161.19h4.93v-6.984H79.574a8.972,8.972,0,0,0,3.629-.616,5.957,5.957,0,0,0,2.533-2.26,4.451,4.451,0,0,0,.822-1.643,10.134,10.134,0,0,0,.205-2.4V137.7A5.647,5.647,0,0,0,84.71,132.774ZM69.235,151.056V137.909a3.287,3.287,0,0,1,1.027-2.67,5.559,5.559,0,0,1,3.561-.89h3.561a10.2,10.2,0,0,1,2.465.205,2.806,2.806,0,0,1,1.233.685,3.287,3.287,0,0,1,1.027,2.533v9.518a3.766,3.766,0,0,1-.89,2.807,4.175,4.175,0,0,1-3.013.89Z" transform="translate(-20.209 -41.368)" fill="#1a1311"/><path d="M115.221,131.2h-10.2v3.15h9.107a4.588,4.588,0,0,1,3.081.89,3.15,3.15,0,0,1,.959,2.533v.411H107.484a7.942,7.942,0,0,0-3.561.753,5.546,5.546,0,0,0-2.533,2.26,6.642,6.642,0,0,0-.89,3.424v3.15a6.3,6.3,0,0,0,1.643,4.177A7.052,7.052,0,0,0,106.457,154h9.928a8.01,8.01,0,0,0,2.944-.479,5.956,5.956,0,0,0,2.26-1.438,5.2,5.2,0,0,0,1.3-2.054,8.7,8.7,0,0,0,.342-2.6v-9.449C123.1,134.9,121.726,131.2,115.221,131.2Zm-5.957,19.925h-.548c-2.876-.411-3.287-1.986-3.287-3.218v-3.081a3.081,3.081,0,0,1,.753-2.26,3.835,3.835,0,0,1,2.328-1.027H118.3v6.5a3.081,3.081,0,0,1-.822,2.4,3.766,3.766,0,0,1-2.67.822Z" transform="translate(-31.685 -41.369)" fill="#1a1311"/><path d="M165.534,131.2H143.965a9.174,9.174,0,0,0-3.561.959,5.067,5.067,0,0,0-2.191,2.4,8.7,8.7,0,0,0-.616,3.56v16.091h4.93V138.116a3.971,3.971,0,0,1,.822-2.739,3.629,3.629,0,0,1,2.533-1.027h18.693a4.656,4.656,0,0,1,3.081.89,3.15,3.15,0,0,1,.959,2.533v.411h-10.75a8.08,8.08,0,0,0-3.629.753,5.615,5.615,0,0,0-2.534,2.26,6.71,6.71,0,0,0-.89,3.424v3.15a6.3,6.3,0,0,0,1.643,4.177A7.052,7.052,0,0,0,156.769,154H166.7a8.01,8.01,0,0,0,2.944-.479,5.888,5.888,0,0,0,2.259-1.438,5.341,5.341,0,0,0,1.3-2.054,8.563,8.563,0,0,0,.342-2.6v-9.449C173.477,134.9,172.107,131.2,165.534,131.2Zm-5.957,19.925h-.548c-2.26-.342-3.218-1.3-3.218-3.218v-3.081a3.15,3.15,0,0,1,.753-2.26,3.766,3.766,0,0,1,2.328-1.027h9.792v6.5a3.149,3.149,0,0,1-.822,2.4,3.834,3.834,0,0,1-2.67.822Z" transform="translate(-43.379 -41.369)" fill="#1a1311"/><path d="M211.836,121.3v6.847H201.771a8.308,8.308,0,0,0-5.683,1.78,6.5,6.5,0,0,0-2.191,5.2v9.792a6.026,6.026,0,0,0,1.78,4.245,6.3,6.3,0,0,0,1.575,1.232h0a6.162,6.162,0,0,0,1.917.616,18.293,18.293,0,0,0,2.739.137h7.806a8.447,8.447,0,0,0,5.341-1.917,6.436,6.436,0,0,0,1.849-4.862V121.3Zm0,10V144.17a3.355,3.355,0,0,1-.959,2.67A5.966,5.966,0,0,1,207.385,148h-3.971a8.56,8.56,0,0,1-2.944-.411,2.259,2.259,0,0,1-1.232-1.164,6.025,6.025,0,0,1-.411-2.533v-8.765a4.313,4.313,0,0,1,.411-2.054,3.7,3.7,0,0,1,1.369-1.3,5.615,5.615,0,0,1,2.739-.548Z" transform="translate(-61.128 -38.248)" fill="#1a1311"/><rect width="4.93" height="23.007" transform="translate(158.65 89.831)" fill="#1a1311"/><rect width="4.93" height="23.007" transform="translate(276.834 89.831)" fill="#1a1311"/><path d="M262.512,132.327a11.162,11.162,0,0,0-3.9-1.027H249.3a11.432,11.432,0,0,0-2.739.685,5.408,5.408,0,0,0-2.054,1.369,5.271,5.271,0,0,0-1.164,2.123,9.723,9.723,0,0,0-.342,2.739v9.107a8.558,8.558,0,0,0,.548,3.355,5.409,5.409,0,0,0,1.917,2.328l1.438.822a6.027,6.027,0,0,0,1.78.411h11.983v.274a4.659,4.659,0,0,1-.342,1.917,2.191,2.191,0,0,1-.959.959,5.955,5.955,0,0,1-2.122.616h-9.175v3.218H256.9a23.214,23.214,0,0,0,4.725-.342,5.41,5.41,0,0,0,2.739-1.3,4.107,4.107,0,0,0,1.1-2.191,20.541,20.541,0,0,0,.206-3.013V138.284a8.423,8.423,0,0,0-.685-3.629A5,5,0,0,0,262.512,132.327Zm-9.655,18.83a12.047,12.047,0,0,1-2.6-.274,3.355,3.355,0,0,1-1.438-.616,2.4,2.4,0,0,1-.753-1.1,6.167,6.167,0,0,1-.274-1.917v-9.175a3.716,3.716,0,0,1,.959-2.876,5.5,5.5,0,0,1,3.492-.89h4.725a4.352,4.352,0,0,1,2.876,1.1,4.7,4.7,0,0,1,.753,3.013v12.6Z" transform="translate(-76.609 -41.401)" fill="#1a1311"/><path d="M306.2,131.2H301.4a6.641,6.641,0,0,0-4.108,1.232,6.711,6.711,0,0,0-4.108-1.232h-4.93c-4.725,0-7.258,2.533-7.258,7.258V154.2h4.793v-16.3a3.97,3.97,0,0,1,.479-1.986,2.6,2.6,0,0,1,1.3-1.1,5.959,5.959,0,0,1,2.328-.411h2.328a2.739,2.739,0,0,1,1.78,1.1,5.58,5.58,0,0,1,.548,3.013V154.2h4.93v-15.68a7.6,7.6,0,0,1,.274-2.26,2.26,2.26,0,0,1,.753-1.1,3.833,3.833,0,0,1,1.506-.685h2.328a4.176,4.176,0,0,1,2.876.89,3.356,3.356,0,0,1,.959,2.67v16.3h5V138.593C313.182,133.731,310.785,131.2,306.2,131.2Z" transform="translate(-88.593 -41.367)" fill="#1a1311"/><path d="M374.237,128.732a14.653,14.653,0,0,0-4.862-.685h-9.107V121.2h-4.93v6.847H339.316a9.038,9.038,0,0,0-4.588.959,5.615,5.615,0,0,0-2.4,3.287c0,.069-.137,1.37-.137,1.37v1.3a5.478,5.478,0,0,0,1.917,4.519,8.946,8.946,0,0,0,5.546,1.438h5.478a2.415,2.415,0,0,1,2.944,2.807v1.643a2.6,2.6,0,0,1-.822,1.917,4.108,4.108,0,0,1-2.465.616h-12.6v3.081h14.242a8.7,8.7,0,0,0,3.561-.616,5.2,5.2,0,0,0,2.26-2.26,6.5,6.5,0,0,0,.685-3.355v-1.1a5.82,5.82,0,0,0-1.575-4.382,6.3,6.3,0,0,0-4.519-1.575H341.3a6.245,6.245,0,0,1-3.424-.685,2.465,2.465,0,0,1-.822-2.123v-1.3a2.123,2.123,0,0,1,1.1-1.917,2.465,2.465,0,0,1,.89-.411h16.3v19.857h4.93V131.265h8.285a5.965,5.965,0,0,1,3.629.89c.685.548.959,1.643.959,3.15v15.749h4.93V135.168a8.492,8.492,0,0,0-.89-4.04A5.2,5.2,0,0,0,374.237,128.732Z" transform="translate(-104.73 -38.216)" fill="#1a1311"/><path d="M440.9,128.047V121.2h-4.93v6.847H422v-1.1a3.491,3.491,0,0,1,.479-1.3,2.6,2.6,0,0,1,.822-.753,5.34,5.34,0,0,1,1.575-.479h4.314v-3.081h-6.573c-3.7.479-5.615,2.739-5.615,6.436v23.281h4.93V131.2h14.037v19.857h4.93V131.2h6.573v-3.15Z" transform="translate(-131.47 -38.216)" fill="#1a1311"/><path d="M236.667,122.633a2.534,2.534,0,1,1-.766-1.816,2.534,2.534,0,0,1,.766,1.816Z" transform="translate(-73.018 -37.869)" fill="#1a1311"/><path d="M409.067,122.633a2.533,2.533,0,1,1-2.534-2.533,2.534,2.534,0,0,1,2.534,2.533Z" transform="translate(-127.372 -37.87)" fill="#1a1311"/></g></g></svg>