<svg xmlns="http://www.w3.org/2000/svg" xmlns:xlink="http://www.w3.org/1999/xlink" width="86.098" height="64" viewBox="0 0 86.098 64"><defs><style>.a{fill:none;}.b{clip-path:url(#a);}.c{fill:#4798d3;}.d{fill:#ee881b;}.e{fill:#223d56;}</style><clipPath id="a"><rect class="a" width="86.098" height="64"/></clipPath></defs><g class="b"><path class="c" d="M133.8,132.983a5.226,5.226,0,0,0-1.442-.206,7.9,7.9,0,0,1-4.443-1.362c-.1-.066-.194-.135-.289-.205a8.079,8.079,0,0,1-1.7-1.71q-.105-.143-.2-.291a8.034,8.034,0,0,1-1.353-4.473c0-.072-.012-.141-.015-.212-.006-.144-.014-.286-.031-.427-.01-.079-.023-.158-.036-.236q-.041-.247-.1-.487c-.008-.03-.011-.061-.02-.091s-.012-.036-.018-.054c-.022-.076-.048-.15-.073-.224s-.052-.148-.08-.22-.063-.156-.1-.232-.06-.128-.092-.192-.078-.156-.12-.232c-.031-.055-.065-.109-.1-.163a5.328,5.328,0,0,0-.334-.488c-.021-.026-.039-.055-.06-.081-.058-.072-.12-.14-.182-.21-.041-.046-.082-.093-.124-.138-.062-.065-.127-.128-.193-.19-.047-.044-.094-.087-.142-.13-.067-.059-.135-.117-.206-.173-.05-.04-.1-.078-.154-.116-.073-.054-.145-.107-.221-.157-.049-.032-.1-.061-.15-.092a5.26,5.26,0,0,0-.492-.267c-.044-.021-.087-.044-.131-.064-.086-.038-.175-.071-.264-.1-.057-.022-.114-.044-.172-.063-.09-.03-.182-.057-.274-.083-.058-.016-.116-.031-.174-.045-.1-.023-.194-.045-.292-.063-.052-.009-.1-.016-.157-.024-.108-.016-.215-.032-.325-.041l-.033,0c-.14-.011-.28-.022-.423-.022a5.22,5.22,0,0,0-3.347,1.215l-.012.01q-.187.156-.358.328l-.016.016a5.351,5.351,0,0,0-.89,1.2c-.014.026-.027.053-.041.079q-.091.173-.169.353c-.017.039-.033.078-.049.118q-.069.172-.127.349c-.013.04-.027.079-.039.119s-.019.055-.027.083c-.013.045-.018.092-.029.138-.035.138-.065.278-.09.42-.016.09-.03.179-.041.27-.015.13-.022.261-.028.394,0,.077-.017.152-.017.23a8.035,8.035,0,0,1-1.353,4.473q-.1.148-.2.291a8.079,8.079,0,0,1-1.7,1.71c-.095.07-.191.139-.289.205a7.9,7.9,0,0,1-4.443,1.362,5.22,5.22,0,0,0-1.442.207,5.3,5.3,0,1,0,6.723,5.11,8.033,8.033,0,0,1,1.353-4.473c.066-.1.134-.2.2-.291a8.082,8.082,0,0,1,1.7-1.71c.095-.07.191-.139.289-.205a7.9,7.9,0,0,1,4.411-1.361l.037,0a7.9,7.9,0,0,1,4.443,1.362c.1.066.194.135.289.205a8.078,8.078,0,0,1,1.7,1.71c.07.1.138.192.2.291a8.032,8.032,0,0,1,1.353,4.473,5.281,5.281,0,1,0,6.723-5.111" transform="translate(-89.391 -106.086)"/><path class="d" d="M480.6,133.013a5.225,5.225,0,0,0-1.442-.206,7.9,7.9,0,0,1-4.442-1.362c-.1-.066-.194-.135-.289-.205a8.082,8.082,0,0,1-1.7-1.71q-.105-.143-.2-.291a8.034,8.034,0,0,1-1.353-4.473,5.281,5.281,0,1,0-6.723,5.11,5.225,5.225,0,0,0,1.442.206,7.9,7.9,0,0,1,4.443,1.362c.1.066.194.135.289.205a8.08,8.08,0,0,1,1.7,1.71c.07.1.138.192.2.291a8.033,8.033,0,0,1,1.353,4.473,5.281,5.281,0,1,0,6.723-5.11" transform="translate(-409.547 -106.116)"/><path class="c" d="M350.434,5.284A5.248,5.248,0,1,1,345.186,0a5.266,5.266,0,0,1,5.248,5.284" transform="translate(-302.253)"/><path class="e" d="M7.309,385.614c-4.3,0-7.309,3.277-7.309,7.97v12.988H3.4v-9.065h7.812v9.065h3.4V393.584c0-4.693-3.005-7.97-7.309-7.97m3.906,8.723H3.4v-.923c0-2.856,1.5-4.63,3.907-4.63s3.906,1.774,3.906,4.63Z" transform="translate(0 -342.574)"/><rect class="e" width="3.228" height="14.88" transform="translate(19.333 49.118)"/><path class="d" d="M173.9,385.614a1.842,1.842,0,1,0,1.876,1.841,1.82,1.82,0,0,0-1.876-1.841" transform="translate(-152.951 -342.574)"/><path class="e" d="M243.147,392.645v13.928h3.4v-9.008h6.981V394.4H246.55V392.36c0-2.438,1.167-3.575,3.672-3.575h3.308v-3.171h-3.717c-4.175,0-6.667,2.628-6.667,7.03" transform="translate(-216.192 -342.575)"/><path class="e" d="M522.385,447.857a7.445,7.445,0,0,0,7.621,7.42h3.661v-3.162h-3.178c-2.308,0-4.646-1.462-4.646-4.258s2.337-4.258,4.646-4.258h3.178v-3.162h-3.661a7.445,7.445,0,0,0-7.621,7.42" transform="translate(-464.474 -391.278)"/><path class="e" d="M651.078,447.316l-.062.3c-.59,2.814-1.9,4.014-4.38,4.014a4.138,4.138,0,0,1-3.234-1.418l10.446-5.638-.143-.287a7.531,7.531,0,0,0-7.07-4.516,7.459,7.459,0,1,0,0,14.915,7.336,7.336,0,0,0,7.629-6.661l.026-.317Zm-4.443-4.493a3.489,3.489,0,0,1,2.622.909l-6.87,3.71c0-.073-.009-.144-.009-.218a4.144,4.144,0,0,1,4.258-4.4" transform="translate(-568.192 -390.682)"/><path class="c" d="M369.672,439.968a7.372,7.372,0,0,0-5.789,2.325,7.458,7.458,0,0,0,4.838,12.537c.18.013.36.02.539.02a7.292,7.292,0,0,0,3.8-1.066l.122-.074v-3.84l-.444.522a4.558,4.558,0,0,1-7.989-2.285,4.641,4.641,0,0,1,1.114-3.774,4.534,4.534,0,0,1,3.582-1.527,4.732,4.732,0,0,1,4.392,4.794v5.1a2.145,2.145,0,0,0,2.135,2.15h.69v-7.191a7.558,7.558,0,0,0-6.986-7.69" transform="translate(-321.751 -390.851)"/></g></svg>